<svg width="24" height="24" viewBox="0 0 24 24" fill="none" xmlns="http://www.w3.org/2000/svg">
<path d="M1 11.9999C1 11.9999 5 3 12 3C19 3 23 8.9999 23 8.9999" stroke="black" stroke-width="2"/>
<path d="M5 10C5 10 7.54545 5 12 5C16.4545 5 19 10 19 10" stroke="black"/>
<path d="M23 11C23 11 19 20 12 20C5 20 1 14 1 14" stroke="black"/>
<path d="M19 14C19 14 16.4545 18 12 18C7.54545 18 5 14 5 14" stroke="black"/>
<path d="M8 10L12 15L16 10" stroke="black" stroke-width="3" stroke-linecap="round" stroke-linejoin="round"/>
</svg>
